<?xml version="1.0" encoding="utf-8"?>
<!-- Generator: Adobe Illustrator 17.0.0, SVG Export Plug-In . SVG Version: 6.00 Build 0)  -->
<!DOCTYPE svg PUBLIC "-//W3C//DTD SVG 1.1//EN" "http://www.w3.org/Graphics/SVG/1.1/DTD/svg11.dtd">
<svg version="1.1" id="Layer_1" xmlns="http://www.w3.org/2000/svg" xmlns:xlink="http://www.w3.org/1999/xlink" x="0px" y="0px"
	 width="50px" height="50px" viewBox="0 0 50 50" enable-background="new 0 0 50 50" xml:space="preserve">
<path d="M1.701,15.461v-3.24c0-2.736,2.232-4.896,4.968-4.896h4.537v1.944c0,1.944,1.584,3.456,3.456,3.456s3.457-1.512,3.457-3.456
	V7.324h12.745v1.944c0,1.944,1.584,3.456,3.456,3.456c1.944,0,3.457-1.512,3.457-3.456V7.324H42.6c2.736,0,4.896,2.16,4.896,4.896
	v3.24H1.701z M47.497,17.405v24.77c0,2.664-2.16,4.896-4.896,4.896H6.669c-2.736,0-4.968-2.232-4.968-4.896v-24.77H47.497z
	 M25.103,34.327c0-3.168-2.16-5.688-5.688-5.833l4.681-4.824c0.648-0.576,1.008-2.592-1.584-2.521h-9c-1.729,0-1.729,3.168,0,3.168
	h6.121l-0.936,0.936c-2.953,2.808-3.528,3.312-3.745,3.6c-0.792,0.864-0.216,2.232,1.368,2.232h1.656
	c2.232,0,3.456,1.512,3.528,3.168c0,2.088-1.296,4.032-3.889,4.032c-1.512,0-3.24-0.792-3.96-2.016l-3.096,0.936
	c1.512,3.312,4.608,4.248,6.913,4.248C22.438,41.455,25.103,37.855,25.103,34.327z M12.501,9.269V3.796
	c0-1.152,0.936-2.088,2.16-2.088c1.152,0,2.16,0.936,2.16,2.088v5.473c0,1.224-1.008,2.16-2.16,2.16
	C13.438,11.429,12.501,10.493,12.501,9.269z M35.76,21.438c-0.792-0.792-1.944-0.72-2.665,0l-5.041,4.393
	c-1.584,1.512,0.288,3.744,2.16,2.52l2.232-1.728v13.033c0,1.008,0.864,1.872,1.8,1.872c1.08,0,1.8-0.864,1.8-1.872V22.878
	C36.047,22.374,36.12,21.797,35.76,21.438z M32.159,9.269V3.796c0-1.152,0.936-2.088,2.16-2.088s2.16,0.936,2.16,2.088v5.473
	c0,1.224-0.936,2.16-2.16,2.16S32.159,10.493,32.159,9.269z"/>
</svg>
