<?xml version="1.0" encoding="utf-8"?>
<!-- Generator: Adobe Illustrator 17.0.0, SVG Export Plug-In . SVG Version: 6.00 Build 0)  -->
<!DOCTYPE svg PUBLIC "-//W3C//DTD SVG 1.1//EN" "http://www.w3.org/Graphics/SVG/1.1/DTD/svg11.dtd">
<svg version="1.1" id="Layer_1" xmlns="http://www.w3.org/2000/svg" xmlns:xlink="http://www.w3.org/1999/xlink" x="0px" y="0px"
	 width="67.25px" height="50px" viewBox="0 0 67.25 50" enable-background="new 0 0 67.25 50" xml:space="preserve">
<path d="M64.213,6.732V47.56c0,0-4.896-5.544-15.193-5.544S33.466,47.56,33.466,47.56s-5.185-5.544-15.481-5.544
	C7.616,42.016,2.72,47.56,2.72,47.56V6.732c0,0,4.896-5.544,15.265-5.544c10.297,0,15.481,5.544,15.481,5.544
	s5.256-5.544,15.553-5.544S64.213,6.732,64.213,6.732z M17.985,36.831c4.608,0,9.001,1.008,12.889,2.808V11.557
	c-4.032-4.176-8.713-5.185-12.889-5.185c-3.384,0-6.984,0.72-10.081,2.809v29.307C11,37.407,14.457,36.831,17.985,36.831z
	 M59.028,9.181c-2.736-2.016-6.48-2.809-10.009-2.809c-4.896,0-9.073,1.656-12.961,5.185v28.083c3.888-1.8,8.353-2.808,12.961-2.808
	c3.528,0,6.913,0.576,10.009,1.656V9.181z"/>
</svg>
