<?xml version="1.0" encoding="utf-8"?>
<!-- Generator: Adobe Illustrator 18.0.0, SVG Export Plug-In . SVG Version: 6.00 Build 0)  -->
<!DOCTYPE svg PUBLIC "-//W3C//DTD SVG 1.1//EN" "http://www.w3.org/Graphics/SVG/1.1/DTD/svg11.dtd">
<svg version="1.1" id="Layer_1" xmlns="http://www.w3.org/2000/svg" xmlns:xlink="http://www.w3.org/1999/xlink" x="0px" y="0px"
	 viewBox="0 0 40 40" enable-background="new 0 0 40 40" xml:space="preserve">
<g>
	<defs>
		<rect id="SVGID_1_" width="40" height="40"/>
	</defs>
	<clipPath id="SVGID_2_">
		<use xlink:href="#SVGID_1_"  overflow="visible"/>
	</clipPath>
	<path clip-path="url(#SVGID_2_)" fill-rule="evenodd" clip-rule="evenodd" fill="#231F20" d="M35.3,16.9h-3.5c0.3,1,0.4,2,0.4,3.1
		c0,6.8-5.5,12.3-12.3,12.3c-6.8,0-12.3-5.5-12.3-12.3c0-1.1,0.2-2.1,0.4-3.1H4.6v16.9c0,0.8,0.7,1.5,1.5,1.5h27.6
		c0.8,0,1.5-0.7,1.5-1.5V16.9z M35.3,6.1c0-0.8-0.7-1.5-1.5-1.5h-4.6c-0.8,0-1.5,0.7-1.5,1.5v4.6c0,0.8,0.7,1.5,1.5,1.5h4.6
		c0.8,0,1.5-0.7,1.5-1.5V6.1z M20,12.3c-4.2,0-7.7,3.4-7.7,7.7c0,4.2,3.4,7.7,7.7,7.7s7.7-3.4,7.7-7.7C27.6,15.7,24.2,12.3,20,12.3
		 M35.3,39.9H4.6c-2.5,0-4.6-2.1-4.6-4.6V4.6C0,2.1,2.1,0,4.6,0h30.7c2.5,0,4.6,2.1,4.6,4.6v30.7C39.9,37.9,37.9,39.9,35.3,39.9"/>
</g>
</svg>
