<?xml version="1.0" encoding="utf-8"?>
<!-- Generator: Adobe Illustrator 17.0.0, SVG Export Plug-In . SVG Version: 6.00 Build 0)  -->
<!DOCTYPE svg PUBLIC "-//W3C//DTD SVG 1.1//EN" "http://www.w3.org/Graphics/SVG/1.1/DTD/svg11.dtd">
<svg version="1.1" id="Layer_1" xmlns="http://www.w3.org/2000/svg" xmlns:xlink="http://www.w3.org/1999/xlink" x="0px" y="0px"
	 width="52.417px" height="51px" viewBox="0 0 52.417 51" enable-background="new 0 0 52.417 51" xml:space="preserve">
<path d="M47.983,7.108c2.16,0,3.168,1.296,3.168,2.88v13.465c0,1.512-1.152,2.736-2.664,2.88l-29.091,3.24
	c-2.592,0.288-2.664,3.457,0.144,3.457h27.579c3.168,0,3.168,4.68,0,4.68H18.676c-6.337,0-9.649-9.289-0.864-12.385l-9-19.73H3.627
	c-1.44,0-2.592-1.152-2.592-2.592c0-1.44,1.152-2.592,2.592-2.592h3.312c4.608,0,4.681,1.08,7.345,6.696H47.983z M16.948,45.775
	c0,2.448-1.944,4.464-4.536,4.464c-2.448,0-4.464-2.016-4.464-4.464c0-2.521,2.016-4.537,4.464-4.537
	C15.004,41.239,16.948,43.255,16.948,45.775z M18.244,16.037h8.569l-1.584-5.041h-9.361L18.244,16.037z M29.333,24.461l-1.872-5.833
	h-8.137l2.952,6.553L29.333,24.461z M27.821,10.996l1.512,5.041h7.129l-1.152-5.041H27.821z M38.334,23.525l-1.44-4.896h-6.84
	l1.8,5.544L38.334,23.525z M47.191,10.996h-9.289l1.08,5.041h8.208V10.996z M47.407,45.775c0,2.448-1.944,4.464-4.464,4.464
	c-2.521,0-4.537-2.016-4.537-4.464c0-2.521,2.016-4.537,4.537-4.537C45.463,41.239,47.407,43.255,47.407,45.775z M47.191,18.629
	h-7.632l1.152,4.537l6.48-0.648V18.629z"/>
</svg>
