<?xml version="1.0" encoding="utf-8"?>
<!-- Generator: Adobe Illustrator 17.0.0, SVG Export Plug-In . SVG Version: 6.00 Build 0)  -->
<!DOCTYPE svg PUBLIC "-//W3C//DTD SVG 1.1//EN" "http://www.w3.org/Graphics/SVG/1.1/DTD/svg11.dtd">
<svg version="1.1" id="Layer_1" xmlns="http://www.w3.org/2000/svg" xmlns:xlink="http://www.w3.org/1999/xlink" x="0px" y="0px"
	 width="52.417px" height="51px" viewBox="0 0 52.417 51" enable-background="new 0 0 52.417 51" xml:space="preserve">
<g>
	<path d="M48.545,35.78l-2.305,4.104l-6.624-1.152l-2.881,2.377v6.696l-4.393,1.585l-4.32-5.113h-3.744l-4.32,5.113l-4.393-1.585
		l-0.072-6.696l-2.809-2.448l-6.625,1.151L3.757,35.78l4.249-5.186l-0.648-3.672L1.597,23.61l0.792-4.68l6.625-1.152l1.873-3.24
		L8.582,8.273l3.6-3.024l5.833,3.312l3.528-1.224l2.304-6.336h4.68l2.305,6.336l3.528,1.296l5.761-3.384l3.6,3.024l-2.231,6.336
		l1.8,3.24l6.625,1.152l0.792,4.608l-5.761,3.385l-0.648,3.672C44.296,30.667,44.296,30.667,48.545,35.78z M26.151,33.979
		c4.68,0,8.424-3.744,8.424-8.424c0-4.681-3.744-8.425-8.424-8.425s-8.425,3.744-8.425,8.425
		C17.727,30.235,21.471,33.979,26.151,33.979z"/>
</g>
</svg>
