<?xml version="1.0" encoding="utf-8"?>
<!-- Generator: Adobe Illustrator 17.0.0, SVG Export Plug-In . SVG Version: 6.00 Build 0)  -->
<!DOCTYPE svg PUBLIC "-//W3C//DTD SVG 1.1//EN" "http://www.w3.org/Graphics/SVG/1.1/DTD/svg11.dtd">
<svg version="1.1" id="Layer_1" xmlns="http://www.w3.org/2000/svg" xmlns:xlink="http://www.w3.org/1999/xlink" x="0px" y="0px"
	 width="50px" height="50px" viewBox="0 0 50 50" enable-background="new 0 0 50 50" xml:space="preserve">
<path d="M31.039,33.495c-3.744,0.36-7.488-0.648-10.729-2.88l-2.304,7.417l-7.417,8.856c-0.648,0.792-1.584,1.008-2.52,1.08
	c-2.304,0.216-4.464-1.728-4.681-3.96c-0.072-0.936,0.072-1.944,0.648-2.665l7.344-8.856l6.985-3.601
	c-2.808-2.736-4.393-6.409-4.752-10.081c-0.72-8.713,5.977-16.49,14.617-17.282c8.641-0.72,16.562,5.905,17.354,14.545
	c0.36,4.176-0.792,8.353-3.6,11.737C39.104,31.19,35.143,33.135,31.039,33.495z M30.535,27.374
	c5.256-0.504,9.361-5.328,8.857-10.801c-0.432-5.256-5.4-9.361-10.585-8.857c-5.4,0.432-9.433,5.329-9.001,10.585
	c0.216,2.592,1.368,5.041,3.457,6.769C25.422,26.798,28.015,27.59,30.535,27.374z"/>
</svg>
