<?xml version="1.0" encoding="utf-8"?>
<!-- Generator: Adobe Illustrator 18.0.0, SVG Export Plug-In . SVG Version: 6.00 Build 0)  -->
<!DOCTYPE svg PUBLIC "-//W3C//DTD SVG 1.1//EN" "http://www.w3.org/Graphics/SVG/1.1/DTD/svg11.dtd">
<svg version="1.1" id="Layer_1" xmlns="http://www.w3.org/2000/svg" xmlns:xlink="http://www.w3.org/1999/xlink" x="0px" y="0px"
	 viewBox="0 0 40 40" enable-background="new 0 0 40 40" xml:space="preserve">
<path fill="#231F20" d="M39.8,7.7c-1.5,0.6-3,1.1-4.7,1.3c1.7-1,3-2.6,3.6-4.5c-1.6,0.9-3.3,1.6-5.2,2c-1.5-1.6-3.6-2.6-5.9-2.6
	c-4.5,0-8.1,3.6-8.1,8.1c0,0.6,0.1,1.3,0.2,1.9c-6.8-0.3-12.8-3.6-16.8-8.5C2.2,6.6,1.8,8,1.8,9.5c0,2.8,1.4,5.3,3.6,6.8
	c-1.3,0-2.6-0.4-3.7-1c0,0,0,0.1,0,0.1c0,3.9,2.8,7.2,6.5,8c-0.7,0.2-1.4,0.3-2.1,0.3c-0.5,0-1-0.1-1.5-0.1c1,3.2,4,5.6,7.6,5.7
	c-2.8,2.2-6.3,3.5-10.1,3.5c-0.7,0-1.3,0-1.9-0.1c3.6,2.3,7.9,3.7,12.5,3.7c15,0,23.2-12.4,23.2-23.2c0-0.4,0-0.7,0-1.1
	C37.4,10.8,38.8,9.3,39.8,7.7z"/>
</svg>
